<svg width="205" height="62" viewBox="0 0 205 62" fill="none" xmlns="http://www.w3.org/2000/svg">
<path id="Ellipse 14" d="M204.5 31C204.5 35.0397 201.791 38.9868 196.654 42.6599C191.53 46.3242 184.082 49.6447 174.834 52.4417C156.344 58.0338 130.77 61.5 102.5 61.5C74.2303 61.5 48.6564 58.0338 30.1663 52.4417C20.9181 49.6447 13.4704 46.3242 8.34578 42.6599C3.20888 38.9868 0.5 35.0397 0.5 31C0.5 26.9603 3.20888 23.0132 8.34578 19.3401C13.4704 15.6758 20.9181 12.3553 30.1663 9.55828C48.6564 3.96615 74.2303 0.5 102.5 0.5C130.77 0.5 156.344 3.96615 174.834 9.55828C184.082 12.3553 191.53 15.6758 196.654 19.3401C201.791 23.0132 204.5 26.9603 204.5 31Z" stroke="#D6E2FF"/>
</svg>
